<mxfile host="app.diagrams.net" modified="2024-02-29T19:39:25.969Z" agent="Mozilla/5.0 (Windows NT 10.0; Win64; x64) AppleWebKit/537.36 (KHTML, like Gecko) Chrome/122.0.0.0 Safari/537.36" etag="sOgFdn8QWuHstPLaUpsd" version="23.1.8" type="device">
  <diagram id="wFE0QG_FPsp0jaGvCLVb" name="Page-1">
    <mxGraphModel dx="3585" dy="1930" grid="1" gridSize="10" guides="1" tooltips="1" connect="1" arrows="1" fold="1" page="1" pageScale="1" pageWidth="3300" pageHeight="4681" background="none" math="0" shadow="0">
      <root>
        <mxCell id="0" />
        <mxCell id="1" parent="0" />
        <mxCell id="MJ9FmiJIb03FYbhCcJB9-36" value="" style="rounded=0;whiteSpace=wrap;html=1;sketch=1;hachureGap=4;jiggle=2;curveFitting=1;" parent="1" vertex="1">
          <mxGeometry x="590" y="820" width="120" height="60" as="geometry" />
        </mxCell>
        <mxCell id="MJ9FmiJIb03FYbhCcJB9-1" value="" style="rounded=0;whiteSpace=wrap;html=1;sketch=1;hachureGap=4;jiggle=2;curveFitting=1;" parent="1" vertex="1">
          <mxGeometry x="650" y="1000" width="580" height="350" as="geometry" />
        </mxCell>
        <mxCell id="MJ9FmiJIb03FYbhCcJB9-2" value="" style="rounded=0;whiteSpace=wrap;html=1;sketch=1;hachureGap=4;jiggle=2;curveFitting=1;" parent="1" vertex="1">
          <mxGeometry x="650" y="1000" width="580" height="60" as="geometry" />
        </mxCell>
        <mxCell id="MJ9FmiJIb03FYbhCcJB9-4" value="Logo" style="ellipse;whiteSpace=wrap;html=1;align=center;sketch=1;hachureGap=4;jiggle=2;curveFitting=1;" parent="1" vertex="1">
          <mxGeometry x="670" y="1010" width="40" height="40" as="geometry" />
        </mxCell>
        <mxCell id="MJ9FmiJIb03FYbhCcJB9-5" value="&lt;font style=&quot;font-size: 17px;&quot;&gt;&lt;b&gt;Home page&lt;/b&gt;&lt;/font&gt;" style="text;html=1;align=center;verticalAlign=middle;whiteSpace=wrap;rounded=0;" parent="1" vertex="1">
          <mxGeometry x="870" y="1015" width="110" height="30" as="geometry" />
        </mxCell>
        <mxCell id="MJ9FmiJIb03FYbhCcJB9-6" value="About Us" style="text;html=1;align=center;verticalAlign=middle;whiteSpace=wrap;rounded=0;" parent="1" vertex="1">
          <mxGeometry x="1040" y="1015" width="60" height="30" as="geometry" />
        </mxCell>
        <mxCell id="MJ9FmiJIb03FYbhCcJB9-7" value="Change Detail" style="text;html=1;align=center;verticalAlign=middle;whiteSpace=wrap;rounded=0;" parent="1" vertex="1">
          <mxGeometry x="1110" y="1015" width="60" height="30" as="geometry" />
        </mxCell>
        <mxCell id="MJ9FmiJIb03FYbhCcJB9-10" value="Login" style="ellipse;whiteSpace=wrap;html=1;align=center;sketch=1;hachureGap=4;jiggle=2;curveFitting=1;" parent="1" vertex="1">
          <mxGeometry x="1180" y="1010" width="40" height="40" as="geometry" />
        </mxCell>
        <mxCell id="MJ9FmiJIb03FYbhCcJB9-11" value="" style="shape=internalStorage;whiteSpace=wrap;html=1;dx=15;dy=15;rounded=1;arcSize=8;strokeWidth=2;sketch=1;hachureGap=4;jiggle=2;curveFitting=1;" parent="1" vertex="1">
          <mxGeometry x="670" y="1080" width="210" height="240" as="geometry" />
        </mxCell>
        <mxCell id="MJ9FmiJIb03FYbhCcJB9-13" value="" style="shape=internalStorage;whiteSpace=wrap;html=1;dx=15;dy=15;rounded=1;arcSize=8;strokeWidth=2;sketch=1;hachureGap=4;jiggle=2;curveFitting=1;" parent="1" vertex="1">
          <mxGeometry x="1000" y="1080" width="210" height="240" as="geometry" />
        </mxCell>
        <mxCell id="MJ9FmiJIb03FYbhCcJB9-14" value="&lt;h1&gt;Events&lt;/h1&gt;&lt;p&gt;Lorem ipsum dolor sit amet, consectetur adipisicing elit, sed do eiusmod tempor incididunt ut labore et dolore magna aliqua.&lt;/p&gt;" style="text;html=1;spacing=5;spacingTop=-20;whiteSpace=wrap;overflow=hidden;rounded=0;" parent="1" vertex="1">
          <mxGeometry x="690" y="1130" width="190" height="120" as="geometry" />
        </mxCell>
        <mxCell id="MJ9FmiJIb03FYbhCcJB9-15" value="&lt;font style=&quot;font-size: 16px;&quot;&gt;&lt;b&gt;Crytoshow devices&lt;/b&gt;&lt;/font&gt;" style="text;html=1;align=center;verticalAlign=middle;whiteSpace=wrap;rounded=0;" parent="1" vertex="1">
          <mxGeometry x="1020" y="1110" width="155" height="30" as="geometry" />
        </mxCell>
        <mxCell id="MJ9FmiJIb03FYbhCcJB9-16" value="" style="rounded=0;whiteSpace=wrap;html=1;sketch=1;hachureGap=4;jiggle=2;curveFitting=1;" parent="1" vertex="1">
          <mxGeometry x="1010" y="550" width="580" height="350" as="geometry" />
        </mxCell>
        <mxCell id="MJ9FmiJIb03FYbhCcJB9-17" value="" style="rounded=0;whiteSpace=wrap;html=1;sketch=1;hachureGap=4;jiggle=2;curveFitting=1;" parent="1" vertex="1">
          <mxGeometry x="1010" y="550" width="580" height="60" as="geometry" />
        </mxCell>
        <mxCell id="MJ9FmiJIb03FYbhCcJB9-18" value="Login" style="ellipse;whiteSpace=wrap;html=1;align=center;sketch=1;hachureGap=4;jiggle=2;curveFitting=1;" parent="1" vertex="1">
          <mxGeometry x="1440" y="560" width="40" height="40" as="geometry" />
        </mxCell>
        <mxCell id="MJ9FmiJIb03FYbhCcJB9-19" value="Logo" style="ellipse;whiteSpace=wrap;html=1;align=center;sketch=1;hachureGap=4;jiggle=2;curveFitting=1;" parent="1" vertex="1">
          <mxGeometry x="1020" y="560" width="40" height="40" as="geometry" />
        </mxCell>
        <mxCell id="MJ9FmiJIb03FYbhCcJB9-22" value="&lt;font style=&quot;font-size: 16px;&quot;&gt;&lt;b&gt;About Us&lt;/b&gt;&lt;/font&gt;" style="text;html=1;align=center;verticalAlign=middle;whiteSpace=wrap;rounded=0;" parent="1" vertex="1">
          <mxGeometry x="1260" y="565" width="100" height="30" as="geometry" />
        </mxCell>
        <mxCell id="MJ9FmiJIb03FYbhCcJB9-23" value="Sign Up" style="ellipse;whiteSpace=wrap;html=1;align=center;sketch=1;hachureGap=4;jiggle=2;curveFitting=1;" parent="1" vertex="1">
          <mxGeometry x="1490" y="560" width="100" height="40" as="geometry" />
        </mxCell>
        <mxCell id="MJ9FmiJIb03FYbhCcJB9-24" value="&lt;h1&gt;Our detail&lt;/h1&gt;&lt;p&gt;Lorem ipsum dolor sit amet, consectetur adipisicing elit, sed do eiusmod tempor incididunt ut labore et dolore magna aliqua.&lt;/p&gt;" style="text;html=1;spacing=5;spacingTop=-20;whiteSpace=wrap;overflow=hidden;rounded=0;" parent="1" vertex="1">
          <mxGeometry x="1060" y="630" width="460" height="210" as="geometry" />
        </mxCell>
        <mxCell id="MJ9FmiJIb03FYbhCcJB9-25" value="" style="endArrow=classic;html=1;rounded=0;sketch=1;hachureGap=4;jiggle=2;curveFitting=1;exitX=0.5;exitY=0;exitDx=0;exitDy=0;entryX=0.25;entryY=1;entryDx=0;entryDy=0;" parent="1" source="MJ9FmiJIb03FYbhCcJB9-6" target="MJ9FmiJIb03FYbhCcJB9-16" edge="1">
          <mxGeometry width="50" height="50" relative="1" as="geometry">
            <mxPoint x="1080" y="1000" as="sourcePoint" />
            <mxPoint x="1130" y="950" as="targetPoint" />
          </mxGeometry>
        </mxCell>
        <mxCell id="MJ9FmiJIb03FYbhCcJB9-26" value="" style="rounded=0;whiteSpace=wrap;html=1;sketch=1;hachureGap=4;jiggle=2;curveFitting=1;rotation=90;" parent="1" vertex="1">
          <mxGeometry x="830" y="1170" width="220" height="60" as="geometry" />
        </mxCell>
        <mxCell id="MJ9FmiJIb03FYbhCcJB9-27" value="&lt;font style=&quot;font-size: 15px;&quot;&gt;&lt;b&gt;List view&lt;/b&gt;&lt;/font&gt;" style="text;html=1;align=center;verticalAlign=middle;whiteSpace=wrap;rounded=0;rotation=-90;" parent="1" vertex="1">
          <mxGeometry x="900" y="1175" width="80" height="30" as="geometry" />
        </mxCell>
        <mxCell id="MJ9FmiJIb03FYbhCcJB9-28" value="" style="rounded=0;whiteSpace=wrap;html=1;sketch=1;hachureGap=4;jiggle=2;curveFitting=1;" parent="1" vertex="1">
          <mxGeometry x="360" y="550" width="580" height="350" as="geometry" />
        </mxCell>
        <mxCell id="MJ9FmiJIb03FYbhCcJB9-29" value="" style="rounded=0;whiteSpace=wrap;html=1;sketch=1;hachureGap=4;jiggle=2;curveFitting=1;" parent="1" vertex="1">
          <mxGeometry x="360" y="550" width="580" height="60" as="geometry" />
        </mxCell>
        <mxCell id="MJ9FmiJIb03FYbhCcJB9-30" value="&lt;font style=&quot;font-size: 17px;&quot;&gt;&lt;b&gt;Event detail&lt;br&gt;&lt;/b&gt;&lt;/font&gt;" style="text;html=1;align=center;verticalAlign=middle;whiteSpace=wrap;rounded=0;" parent="1" vertex="1">
          <mxGeometry x="595" y="560" width="110" height="30" as="geometry" />
        </mxCell>
        <mxCell id="MJ9FmiJIb03FYbhCcJB9-31" value="" style="whiteSpace=wrap;html=1;aspect=fixed;sketch=1;hachureGap=4;jiggle=2;curveFitting=1;" parent="1" vertex="1">
          <mxGeometry x="390" y="630" width="80" height="80" as="geometry" />
        </mxCell>
        <mxCell id="MJ9FmiJIb03FYbhCcJB9-32" value="" style="whiteSpace=wrap;html=1;aspect=fixed;sketch=1;hachureGap=4;jiggle=2;curveFitting=1;" parent="1" vertex="1">
          <mxGeometry x="390" y="760" width="80" height="80" as="geometry" />
        </mxCell>
        <mxCell id="MJ9FmiJIb03FYbhCcJB9-33" value="&lt;h1&gt;Event 1&lt;/h1&gt;&lt;p&gt;Lorem ipsum dolor sit amet, consectetur adipisicing elit, sed do eiusmod tempor incididunt ut labore et dolore magna aliqua.&lt;/p&gt;" style="text;html=1;spacing=5;spacingTop=-20;whiteSpace=wrap;overflow=hidden;rounded=0;" parent="1" vertex="1">
          <mxGeometry x="510" y="620" width="380" height="100" as="geometry" />
        </mxCell>
        <mxCell id="MJ9FmiJIb03FYbhCcJB9-35" value="&lt;h1&gt;Event 2&lt;/h1&gt;&lt;p&gt;Lorem ipsum dolor sit amet, consectetur adipisicing elit, sed do eiusmod tempor incididunt ut labore et dolore magna aliqua.&lt;/p&gt;" style="text;html=1;spacing=5;spacingTop=-20;whiteSpace=wrap;overflow=hidden;rounded=0;" parent="1" vertex="1">
          <mxGeometry x="510" y="750" width="380" height="100" as="geometry" />
        </mxCell>
        <mxCell id="MJ9FmiJIb03FYbhCcJB9-38" value="Dowload" style="rounded=1;arcSize=10;whiteSpace=wrap;html=1;align=center;sketch=1;hachureGap=4;jiggle=2;curveFitting=1;" parent="1" vertex="1">
          <mxGeometry x="720" y="710" width="60" height="22.5" as="geometry" />
        </mxCell>
        <mxCell id="MJ9FmiJIb03FYbhCcJB9-39" value="Share" style="rounded=1;arcSize=10;whiteSpace=wrap;html=1;align=center;sketch=1;hachureGap=4;jiggle=2;curveFitting=1;" parent="1" vertex="1">
          <mxGeometry x="790" y="711.25" width="60" height="20" as="geometry" />
        </mxCell>
        <mxCell id="MJ9FmiJIb03FYbhCcJB9-40" value="Dowload" style="rounded=1;arcSize=10;whiteSpace=wrap;html=1;align=center;sketch=1;hachureGap=4;jiggle=2;curveFitting=1;" parent="1" vertex="1">
          <mxGeometry x="720" y="840" width="55" height="21.25" as="geometry" />
        </mxCell>
        <mxCell id="MJ9FmiJIb03FYbhCcJB9-41" value="Share" style="rounded=1;arcSize=10;whiteSpace=wrap;html=1;align=center;sketch=1;hachureGap=4;jiggle=2;curveFitting=1;" parent="1" vertex="1">
          <mxGeometry x="790" y="841.25" width="60" height="20" as="geometry" />
        </mxCell>
        <mxCell id="MJ9FmiJIb03FYbhCcJB9-42" value="" style="endArrow=none;html=1;rounded=0;sketch=1;hachureGap=4;jiggle=2;curveFitting=1;entryX=1;entryY=0;entryDx=0;entryDy=0;exitX=0;exitY=1;exitDx=0;exitDy=0;" parent="1" source="MJ9FmiJIb03FYbhCcJB9-31" target="MJ9FmiJIb03FYbhCcJB9-31" edge="1">
          <mxGeometry width="50" height="50" relative="1" as="geometry">
            <mxPoint x="405" y="695" as="sourcePoint" />
            <mxPoint x="455" y="645" as="targetPoint" />
          </mxGeometry>
        </mxCell>
        <mxCell id="MJ9FmiJIb03FYbhCcJB9-43" value="" style="endArrow=none;html=1;rounded=0;sketch=1;hachureGap=4;jiggle=2;curveFitting=1;entryX=0;entryY=0;entryDx=0;entryDy=0;exitX=1;exitY=1;exitDx=0;exitDy=0;" parent="1" source="MJ9FmiJIb03FYbhCcJB9-31" target="MJ9FmiJIb03FYbhCcJB9-31" edge="1">
          <mxGeometry width="50" height="50" relative="1" as="geometry">
            <mxPoint x="620" y="790" as="sourcePoint" />
            <mxPoint x="670" y="740" as="targetPoint" />
          </mxGeometry>
        </mxCell>
        <mxCell id="MJ9FmiJIb03FYbhCcJB9-44" value="" style="endArrow=none;html=1;rounded=0;sketch=1;hachureGap=4;jiggle=2;curveFitting=1;entryX=0;entryY=0;entryDx=0;entryDy=0;exitX=1;exitY=1;exitDx=0;exitDy=0;" parent="1" source="MJ9FmiJIb03FYbhCcJB9-32" target="MJ9FmiJIb03FYbhCcJB9-32" edge="1">
          <mxGeometry width="50" height="50" relative="1" as="geometry">
            <mxPoint x="620" y="790" as="sourcePoint" />
            <mxPoint x="670" y="740" as="targetPoint" />
          </mxGeometry>
        </mxCell>
        <mxCell id="MJ9FmiJIb03FYbhCcJB9-45" value="" style="endArrow=none;html=1;rounded=0;sketch=1;hachureGap=4;jiggle=2;curveFitting=1;entryX=1;entryY=0;entryDx=0;entryDy=0;exitX=0;exitY=1;exitDx=0;exitDy=0;" parent="1" source="MJ9FmiJIb03FYbhCcJB9-32" target="MJ9FmiJIb03FYbhCcJB9-32" edge="1">
          <mxGeometry width="50" height="50" relative="1" as="geometry">
            <mxPoint x="620" y="790" as="sourcePoint" />
            <mxPoint x="670" y="740" as="targetPoint" />
          </mxGeometry>
        </mxCell>
        <mxCell id="MJ9FmiJIb03FYbhCcJB9-46" value="" style="endArrow=classic;html=1;rounded=0;sketch=1;hachureGap=4;jiggle=2;curveFitting=1;exitX=0;exitY=0;exitDx=0;exitDy=0;entryX=0.25;entryY=1;entryDx=0;entryDy=0;" parent="1" source="MJ9FmiJIb03FYbhCcJB9-11" target="MJ9FmiJIb03FYbhCcJB9-28" edge="1">
          <mxGeometry width="50" height="50" relative="1" as="geometry">
            <mxPoint x="620" y="1040" as="sourcePoint" />
            <mxPoint x="670" y="990" as="targetPoint" />
          </mxGeometry>
        </mxCell>
        <mxCell id="-ye_jGZV8SDwIf8IDLf7-1" value="" style="rounded=0;whiteSpace=wrap;html=1;sketch=1;hachureGap=4;jiggle=2;curveFitting=1;" vertex="1" parent="1">
          <mxGeometry x="650" y="1430" width="580" height="350" as="geometry" />
        </mxCell>
        <mxCell id="-ye_jGZV8SDwIf8IDLf7-2" value="" style="rounded=0;whiteSpace=wrap;html=1;sketch=1;hachureGap=4;jiggle=2;curveFitting=1;" vertex="1" parent="1">
          <mxGeometry x="650" y="1430" width="580" height="60" as="geometry" />
        </mxCell>
        <mxCell id="-ye_jGZV8SDwIf8IDLf7-3" value="&lt;font style=&quot;font-size: 17px;&quot;&gt;&lt;b&gt;List view&lt;br&gt;&lt;/b&gt;&lt;/font&gt;" style="text;html=1;align=center;verticalAlign=middle;whiteSpace=wrap;rounded=0;" vertex="1" parent="1">
          <mxGeometry x="885" y="1445" width="110" height="30" as="geometry" />
        </mxCell>
        <mxCell id="-ye_jGZV8SDwIf8IDLf7-4" value="Up coming events" style="shape=internalStorage;whiteSpace=wrap;html=1;backgroundOutline=1;sketch=1;hachureGap=4;jiggle=2;curveFitting=1;" vertex="1" parent="1">
          <mxGeometry x="680" y="1530" width="250" height="210" as="geometry" />
        </mxCell>
        <mxCell id="-ye_jGZV8SDwIf8IDLf7-5" value="Past events" style="shape=internalStorage;whiteSpace=wrap;html=1;backgroundOutline=1;sketch=1;hachureGap=4;jiggle=2;curveFitting=1;" vertex="1" parent="1">
          <mxGeometry x="950" y="1530" width="250" height="210" as="geometry" />
        </mxCell>
        <mxCell id="-ye_jGZV8SDwIf8IDLf7-6" value="" style="endArrow=classic;html=1;rounded=0;sketch=1;hachureGap=4;jiggle=2;curveFitting=1;exitX=1;exitY=0.5;exitDx=0;exitDy=0;entryX=0.5;entryY=0;entryDx=0;entryDy=0;" edge="1" parent="1" source="MJ9FmiJIb03FYbhCcJB9-26" target="-ye_jGZV8SDwIf8IDLf7-2">
          <mxGeometry width="50" height="50" relative="1" as="geometry">
            <mxPoint x="890" y="1330" as="sourcePoint" />
            <mxPoint x="940" y="1280" as="targetPoint" />
          </mxGeometry>
        </mxCell>
        <mxCell id="-ye_jGZV8SDwIf8IDLf7-7" value="" style="rounded=0;whiteSpace=wrap;html=1;sketch=1;hachureGap=4;jiggle=2;curveFitting=1;" vertex="1" parent="1">
          <mxGeometry x="1370" y="1430" width="580" height="350" as="geometry" />
        </mxCell>
        <mxCell id="-ye_jGZV8SDwIf8IDLf7-8" value="" style="rounded=0;whiteSpace=wrap;html=1;sketch=1;hachureGap=4;jiggle=2;curveFitting=1;" vertex="1" parent="1">
          <mxGeometry x="1370" y="1430" width="580" height="60" as="geometry" />
        </mxCell>
        <mxCell id="-ye_jGZV8SDwIf8IDLf7-9" value="&lt;font style=&quot;font-size: 17px;&quot;&gt;&lt;b&gt;Device list&lt;/b&gt;&lt;/font&gt;" style="text;html=1;align=center;verticalAlign=middle;whiteSpace=wrap;rounded=0;" vertex="1" parent="1">
          <mxGeometry x="1605" y="1445" width="110" height="30" as="geometry" />
        </mxCell>
        <mxCell id="-ye_jGZV8SDwIf8IDLf7-10" value="Log out" style="ellipse;whiteSpace=wrap;html=1;align=center;sketch=1;hachureGap=4;jiggle=2;curveFitting=1;" vertex="1" parent="1">
          <mxGeometry x="1900" y="1440" width="40" height="40" as="geometry" />
        </mxCell>
        <mxCell id="-ye_jGZV8SDwIf8IDLf7-11" value="Log out" style="ellipse;whiteSpace=wrap;html=1;align=center;sketch=1;hachureGap=4;jiggle=2;curveFitting=1;" vertex="1" parent="1">
          <mxGeometry x="880" y="560" width="40" height="40" as="geometry" />
        </mxCell>
        <mxCell id="-ye_jGZV8SDwIf8IDLf7-12" value="Log out" style="ellipse;whiteSpace=wrap;html=1;align=center;sketch=1;hachureGap=4;jiggle=2;curveFitting=1;" vertex="1" parent="1">
          <mxGeometry x="1175" y="1440" width="40" height="40" as="geometry" />
        </mxCell>
        <mxCell id="-ye_jGZV8SDwIf8IDLf7-13" value="" style="rounded=0;whiteSpace=wrap;html=1;sketch=1;hachureGap=4;jiggle=2;curveFitting=1;" vertex="1" parent="1">
          <mxGeometry x="1340" y="990" width="580" height="350" as="geometry" />
        </mxCell>
        <mxCell id="-ye_jGZV8SDwIf8IDLf7-14" value="Device" style="swimlane;fontStyle=0;childLayout=stackLayout;horizontal=1;startSize=30;horizontalStack=0;resizeParent=1;resizeParentMax=0;resizeLast=0;collapsible=1;marginBottom=0;whiteSpace=wrap;html=1;sketch=1;hachureGap=4;jiggle=2;curveFitting=1;" vertex="1" parent="1">
          <mxGeometry x="1400" y="1510" width="210" height="240" as="geometry" />
        </mxCell>
        <mxCell id="-ye_jGZV8SDwIf8IDLf7-15" value="Item 1" style="text;strokeColor=none;fillColor=none;align=left;verticalAlign=middle;spacingLeft=4;spacingRight=4;overflow=hidden;points=[[0,0.5],[1,0.5]];portConstraint=eastwest;rotatable=0;whiteSpace=wrap;html=1;" vertex="1" parent="-ye_jGZV8SDwIf8IDLf7-14">
          <mxGeometry y="30" width="210" height="30" as="geometry" />
        </mxCell>
        <mxCell id="-ye_jGZV8SDwIf8IDLf7-16" value="Item 2" style="text;strokeColor=none;fillColor=none;align=left;verticalAlign=middle;spacingLeft=4;spacingRight=4;overflow=hidden;points=[[0,0.5],[1,0.5]];portConstraint=eastwest;rotatable=0;whiteSpace=wrap;html=1;" vertex="1" parent="-ye_jGZV8SDwIf8IDLf7-14">
          <mxGeometry y="60" width="210" height="30" as="geometry" />
        </mxCell>
        <mxCell id="-ye_jGZV8SDwIf8IDLf7-17" value="Item 3" style="text;strokeColor=none;fillColor=none;align=left;verticalAlign=middle;spacingLeft=4;spacingRight=4;overflow=hidden;points=[[0,0.5],[1,0.5]];portConstraint=eastwest;rotatable=0;whiteSpace=wrap;html=1;" vertex="1" parent="-ye_jGZV8SDwIf8IDLf7-14">
          <mxGeometry y="90" width="210" height="30" as="geometry" />
        </mxCell>
        <mxCell id="-ye_jGZV8SDwIf8IDLf7-18" value="Item 4" style="text;strokeColor=none;fillColor=none;align=left;verticalAlign=middle;spacingLeft=4;spacingRight=4;overflow=hidden;points=[[0,0.5],[1,0.5]];portConstraint=eastwest;rotatable=0;whiteSpace=wrap;html=1;" vertex="1" parent="-ye_jGZV8SDwIf8IDLf7-14">
          <mxGeometry y="120" width="210" height="30" as="geometry" />
        </mxCell>
        <mxCell id="-ye_jGZV8SDwIf8IDLf7-19" value="Item 5" style="text;strokeColor=none;fillColor=none;align=left;verticalAlign=middle;spacingLeft=4;spacingRight=4;overflow=hidden;points=[[0,0.5],[1,0.5]];portConstraint=eastwest;rotatable=0;whiteSpace=wrap;html=1;" vertex="1" parent="-ye_jGZV8SDwIf8IDLf7-14">
          <mxGeometry y="150" width="210" height="30" as="geometry" />
        </mxCell>
        <mxCell id="-ye_jGZV8SDwIf8IDLf7-20" value="Item 6" style="text;strokeColor=none;fillColor=none;align=left;verticalAlign=middle;spacingLeft=4;spacingRight=4;overflow=hidden;points=[[0,0.5],[1,0.5]];portConstraint=eastwest;rotatable=0;whiteSpace=wrap;html=1;" vertex="1" parent="-ye_jGZV8SDwIf8IDLf7-14">
          <mxGeometry y="180" width="210" height="30" as="geometry" />
        </mxCell>
        <mxCell id="-ye_jGZV8SDwIf8IDLf7-21" value="Item 7" style="text;strokeColor=none;fillColor=none;align=left;verticalAlign=middle;spacingLeft=4;spacingRight=4;overflow=hidden;points=[[0,0.5],[1,0.5]];portConstraint=eastwest;rotatable=0;whiteSpace=wrap;html=1;" vertex="1" parent="-ye_jGZV8SDwIf8IDLf7-14">
          <mxGeometry y="210" width="210" height="30" as="geometry" />
        </mxCell>
        <mxCell id="-ye_jGZV8SDwIf8IDLf7-22" value="" style="rounded=0;whiteSpace=wrap;html=1;sketch=1;hachureGap=4;jiggle=2;curveFitting=1;" vertex="1" parent="1">
          <mxGeometry x="1340" y="985" width="580" height="60" as="geometry" />
        </mxCell>
        <mxCell id="-ye_jGZV8SDwIf8IDLf7-23" value="&lt;font style=&quot;font-size: 17px;&quot;&gt;&lt;b&gt;Profile&amp;nbsp;&lt;/b&gt;&lt;/font&gt;" style="text;html=1;align=center;verticalAlign=middle;whiteSpace=wrap;rounded=0;" vertex="1" parent="1">
          <mxGeometry x="1575" y="1000" width="110" height="30" as="geometry" />
        </mxCell>
        <mxCell id="-ye_jGZV8SDwIf8IDLf7-24" value="" style="rounded=0;whiteSpace=wrap;html=1;sketch=1;hachureGap=4;jiggle=2;curveFitting=1;" vertex="1" parent="1">
          <mxGeometry x="1550" y="1070" width="250" height="30" as="geometry" />
        </mxCell>
        <mxCell id="-ye_jGZV8SDwIf8IDLf7-25" value="" style="rounded=0;whiteSpace=wrap;html=1;sketch=1;hachureGap=4;jiggle=2;curveFitting=1;" vertex="1" parent="1">
          <mxGeometry x="1550" y="1120" width="250" height="30" as="geometry" />
        </mxCell>
        <mxCell id="-ye_jGZV8SDwIf8IDLf7-26" value="" style="rounded=0;whiteSpace=wrap;html=1;sketch=1;hachureGap=4;jiggle=2;curveFitting=1;" vertex="1" parent="1">
          <mxGeometry x="1550" y="1200" width="250" height="30" as="geometry" />
        </mxCell>
        <mxCell id="-ye_jGZV8SDwIf8IDLf7-27" value="" style="rounded=0;whiteSpace=wrap;html=1;sketch=1;hachureGap=4;jiggle=2;curveFitting=1;" vertex="1" parent="1">
          <mxGeometry x="1550" y="1260" width="250" height="30" as="geometry" />
        </mxCell>
        <mxCell id="-ye_jGZV8SDwIf8IDLf7-28" value="&lt;font style=&quot;font-size: 15px;&quot;&gt;Previous username&lt;/font&gt;" style="text;html=1;align=center;verticalAlign=middle;whiteSpace=wrap;rounded=0;" vertex="1" parent="1">
          <mxGeometry x="1380" y="1070" width="140" height="30" as="geometry" />
        </mxCell>
        <mxCell id="-ye_jGZV8SDwIf8IDLf7-29" value="&lt;font style=&quot;font-size: 15px;&quot;&gt;New username&lt;/font&gt;" style="text;html=1;align=center;verticalAlign=middle;whiteSpace=wrap;rounded=0;" vertex="1" parent="1">
          <mxGeometry x="1380" y="1120" width="140" height="30" as="geometry" />
        </mxCell>
        <mxCell id="-ye_jGZV8SDwIf8IDLf7-30" value="&lt;font style=&quot;font-size: 15px;&quot;&gt;Previous Password&lt;/font&gt;" style="text;html=1;align=center;verticalAlign=middle;whiteSpace=wrap;rounded=0;" vertex="1" parent="1">
          <mxGeometry x="1370" y="1200" width="140" height="30" as="geometry" />
        </mxCell>
        <mxCell id="-ye_jGZV8SDwIf8IDLf7-31" value="&lt;font style=&quot;font-size: 15px;&quot;&gt;New password&lt;/font&gt;" style="text;html=1;align=center;verticalAlign=middle;whiteSpace=wrap;rounded=0;" vertex="1" parent="1">
          <mxGeometry x="1370" y="1260" width="140" height="30" as="geometry" />
        </mxCell>
        <mxCell id="-ye_jGZV8SDwIf8IDLf7-32" value="Home" style="ellipse;whiteSpace=wrap;html=1;align=center;sketch=1;hachureGap=4;jiggle=2;curveFitting=1;" vertex="1" parent="1">
          <mxGeometry x="1120" y="1440" width="40" height="40" as="geometry" />
        </mxCell>
        <mxCell id="-ye_jGZV8SDwIf8IDLf7-33" value="Home" style="ellipse;whiteSpace=wrap;html=1;align=center;sketch=1;hachureGap=4;jiggle=2;curveFitting=1;" vertex="1" parent="1">
          <mxGeometry x="1850" y="1440" width="40" height="40" as="geometry" />
        </mxCell>
        <mxCell id="-ye_jGZV8SDwIf8IDLf7-34" value="Home" style="ellipse;whiteSpace=wrap;html=1;align=center;sketch=1;hachureGap=4;jiggle=2;curveFitting=1;" vertex="1" parent="1">
          <mxGeometry x="1820" y="995" width="40" height="40" as="geometry" />
        </mxCell>
        <mxCell id="-ye_jGZV8SDwIf8IDLf7-35" value="Home" style="ellipse;whiteSpace=wrap;html=1;align=center;sketch=1;hachureGap=4;jiggle=2;curveFitting=1;" vertex="1" parent="1">
          <mxGeometry x="1390" y="560" width="40" height="40" as="geometry" />
        </mxCell>
        <mxCell id="-ye_jGZV8SDwIf8IDLf7-36" value="Home" style="ellipse;whiteSpace=wrap;html=1;align=center;sketch=1;hachureGap=4;jiggle=2;curveFitting=1;" vertex="1" parent="1">
          <mxGeometry x="830" y="560" width="40" height="40" as="geometry" />
        </mxCell>
        <mxCell id="-ye_jGZV8SDwIf8IDLf7-38" value="&lt;font style=&quot;font-size: 15px;&quot;&gt;Save&lt;/font&gt;" style="html=1;whiteSpace=wrap;sketch=1;hachureGap=4;jiggle=2;curveFitting=1;" vertex="1" parent="1">
          <mxGeometry x="1830" y="1300" width="70" height="30" as="geometry" />
        </mxCell>
        <mxCell id="-ye_jGZV8SDwIf8IDLf7-39" value="Log out" style="ellipse;whiteSpace=wrap;html=1;align=center;sketch=1;hachureGap=4;jiggle=2;curveFitting=1;" vertex="1" parent="1">
          <mxGeometry x="1870" y="995" width="40" height="40" as="geometry" />
        </mxCell>
        <mxCell id="-ye_jGZV8SDwIf8IDLf7-41" value="" style="endArrow=classic;html=1;rounded=0;sketch=1;hachureGap=4;jiggle=2;curveFitting=1;exitX=0.5;exitY=0;exitDx=0;exitDy=0;entryX=0;entryY=0;entryDx=0;entryDy=0;" edge="1" parent="1" source="MJ9FmiJIb03FYbhCcJB9-7" target="-ye_jGZV8SDwIf8IDLf7-22">
          <mxGeometry width="50" height="50" relative="1" as="geometry">
            <mxPoint x="1210" y="960" as="sourcePoint" />
            <mxPoint x="1260" y="910" as="targetPoint" />
            <Array as="points">
              <mxPoint x="1170" y="950" />
            </Array>
          </mxGeometry>
        </mxCell>
        <mxCell id="-ye_jGZV8SDwIf8IDLf7-42" value="" style="endArrow=classic;html=1;rounded=0;sketch=1;hachureGap=4;jiggle=2;curveFitting=1;exitX=1;exitY=1;exitDx=0;exitDy=0;entryX=0;entryY=0;entryDx=0;entryDy=0;" edge="1" parent="1" source="MJ9FmiJIb03FYbhCcJB9-13" target="-ye_jGZV8SDwIf8IDLf7-8">
          <mxGeometry width="50" height="50" relative="1" as="geometry">
            <mxPoint x="1270" y="1350" as="sourcePoint" />
            <mxPoint x="1320" y="1300" as="targetPoint" />
          </mxGeometry>
        </mxCell>
        <mxCell id="-ye_jGZV8SDwIf8IDLf7-43" value="" style="rounded=0;whiteSpace=wrap;html=1;sketch=1;hachureGap=4;jiggle=2;curveFitting=1;" vertex="1" parent="1">
          <mxGeometry x="365" y="50" width="580" height="350" as="geometry" />
        </mxCell>
        <mxCell id="-ye_jGZV8SDwIf8IDLf7-44" value="&lt;font style=&quot;font-size: 21px;&quot;&gt;Login&lt;/font&gt;" style="html=1;whiteSpace=wrap;sketch=1;hachureGap=4;jiggle=2;curveFitting=1;" vertex="1" parent="1">
          <mxGeometry x="657.5" y="65" width="180" height="50" as="geometry" />
        </mxCell>
        <mxCell id="-ye_jGZV8SDwIf8IDLf7-45" value="&lt;font style=&quot;font-size: 20px;&quot;&gt;SignUp&lt;/font&gt;" style="html=1;whiteSpace=wrap;sketch=1;hachureGap=4;jiggle=2;curveFitting=1;" vertex="1" parent="1">
          <mxGeometry x="482.5" y="65" width="175" height="50" as="geometry" />
        </mxCell>
        <mxCell id="-ye_jGZV8SDwIf8IDLf7-46" value="" style="rounded=0;whiteSpace=wrap;html=1;sketch=1;hachureGap=4;jiggle=2;curveFitting=1;" vertex="1" parent="1">
          <mxGeometry x="495" y="140" width="330" height="40" as="geometry" />
        </mxCell>
        <mxCell id="-ye_jGZV8SDwIf8IDLf7-47" value="" style="rounded=0;whiteSpace=wrap;html=1;sketch=1;hachureGap=4;jiggle=2;curveFitting=1;" vertex="1" parent="1">
          <mxGeometry x="495" y="220" width="330" height="40" as="geometry" />
        </mxCell>
        <mxCell id="-ye_jGZV8SDwIf8IDLf7-48" value="&lt;font style=&quot;font-size: 16px;&quot;&gt;Your Username or Email&lt;/font&gt;" style="text;html=1;align=center;verticalAlign=middle;whiteSpace=wrap;rounded=0;" vertex="1" parent="1">
          <mxGeometry x="520" y="140" width="210" height="30" as="geometry" />
        </mxCell>
        <mxCell id="-ye_jGZV8SDwIf8IDLf7-50" value="&lt;font style=&quot;font-size: 16px;&quot;&gt;Your Password&lt;/font&gt;" style="text;html=1;align=center;verticalAlign=middle;whiteSpace=wrap;rounded=0;" vertex="1" parent="1">
          <mxGeometry x="520" y="222.5" width="210" height="30" as="geometry" />
        </mxCell>
        <mxCell id="-ye_jGZV8SDwIf8IDLf7-51" value="" style="rounded=0;whiteSpace=wrap;html=1;sketch=1;hachureGap=4;jiggle=2;curveFitting=1;" vertex="1" parent="1">
          <mxGeometry x="495" y="285" width="20" height="20" as="geometry" />
        </mxCell>
        <mxCell id="-ye_jGZV8SDwIf8IDLf7-52" value="&lt;font style=&quot;font-size: 13px;&quot;&gt;Remenber Me&lt;/font&gt;" style="text;html=1;align=center;verticalAlign=middle;whiteSpace=wrap;rounded=0;" vertex="1" parent="1">
          <mxGeometry x="520" y="280" width="100" height="30" as="geometry" />
        </mxCell>
        <mxCell id="-ye_jGZV8SDwIf8IDLf7-53" value="&lt;font style=&quot;font-size: 13px;&quot;&gt;Forget your password?&lt;/font&gt;" style="text;html=1;align=center;verticalAlign=middle;whiteSpace=wrap;rounded=0;" vertex="1" parent="1">
          <mxGeometry x="667.5" y="280" width="160" height="30" as="geometry" />
        </mxCell>
        <mxCell id="-ye_jGZV8SDwIf8IDLf7-55" value="&lt;font style=&quot;font-size: 17px;&quot;&gt;Login&lt;/font&gt;" style="rounded=1;arcSize=10;whiteSpace=wrap;html=1;align=center;sketch=1;hachureGap=4;jiggle=2;curveFitting=1;" vertex="1" parent="1">
          <mxGeometry x="500" y="316.25" width="310" height="40" as="geometry" />
        </mxCell>
        <mxCell id="-ye_jGZV8SDwIf8IDLf7-57" value="Don&#39;t have an account SignUp now" style="text;html=1;align=center;verticalAlign=middle;whiteSpace=wrap;rounded=0;" vertex="1" parent="1">
          <mxGeometry x="495" y="361.25" width="230" height="30" as="geometry" />
        </mxCell>
        <mxCell id="-ye_jGZV8SDwIf8IDLf7-58" value="" style="rounded=0;whiteSpace=wrap;html=1;sketch=1;hachureGap=4;jiggle=2;curveFitting=1;" vertex="1" parent="1">
          <mxGeometry x="1040" y="50" width="580" height="350" as="geometry" />
        </mxCell>
        <mxCell id="-ye_jGZV8SDwIf8IDLf7-59" value="&lt;font style=&quot;font-size: 21px;&quot;&gt;Login&lt;/font&gt;" style="html=1;whiteSpace=wrap;sketch=1;hachureGap=4;jiggle=2;curveFitting=1;" vertex="1" parent="1">
          <mxGeometry x="1325" y="65" width="180" height="50" as="geometry" />
        </mxCell>
        <mxCell id="-ye_jGZV8SDwIf8IDLf7-60" value="&lt;font style=&quot;font-size: 20px;&quot;&gt;SignUp&lt;/font&gt;" style="html=1;whiteSpace=wrap;sketch=1;hachureGap=4;jiggle=2;curveFitting=1;" vertex="1" parent="1">
          <mxGeometry x="1150" y="65" width="175" height="50" as="geometry" />
        </mxCell>
        <mxCell id="-ye_jGZV8SDwIf8IDLf7-67" value="First &amp;amp; Last name" style="whiteSpace=wrap;html=1;align=center;sketch=1;hachureGap=4;jiggle=2;curveFitting=1;" vertex="1" parent="1">
          <mxGeometry x="1160" y="150" width="350" height="40" as="geometry" />
        </mxCell>
        <mxCell id="-ye_jGZV8SDwIf8IDLf7-68" value="Email" style="whiteSpace=wrap;html=1;align=center;sketch=1;hachureGap=4;jiggle=2;curveFitting=1;" vertex="1" parent="1">
          <mxGeometry x="1160" y="205" width="350" height="40" as="geometry" />
        </mxCell>
        <mxCell id="-ye_jGZV8SDwIf8IDLf7-69" value="Your password" style="whiteSpace=wrap;html=1;align=center;sketch=1;hachureGap=4;jiggle=2;curveFitting=1;" vertex="1" parent="1">
          <mxGeometry x="1160" y="260" width="350" height="40" as="geometry" />
        </mxCell>
        <mxCell id="-ye_jGZV8SDwIf8IDLf7-71" value="" style="rounded=0;whiteSpace=wrap;html=1;sketch=1;hachureGap=4;jiggle=2;curveFitting=1;" vertex="1" parent="1">
          <mxGeometry x="1160" y="310" width="20" height="20" as="geometry" />
        </mxCell>
        <mxCell id="-ye_jGZV8SDwIf8IDLf7-72" value="I agree to CryptoShow&#39;s Terms of Service and Privacy Policy." style="text;html=1;align=center;verticalAlign=middle;whiteSpace=wrap;rounded=0;" vertex="1" parent="1">
          <mxGeometry x="1180" y="305" width="355" height="30" as="geometry" />
        </mxCell>
        <mxCell id="-ye_jGZV8SDwIf8IDLf7-73" value="Register" style="rounded=1;arcSize=10;whiteSpace=wrap;html=1;align=center;sketch=1;hachureGap=4;jiggle=2;curveFitting=1;" vertex="1" parent="1">
          <mxGeometry x="1280" y="340" width="100" height="40" as="geometry" />
        </mxCell>
        <mxCell id="-ye_jGZV8SDwIf8IDLf7-76" value="" style="endArrow=classic;html=1;rounded=0;sketch=1;hachureGap=4;jiggle=2;curveFitting=1;exitX=0.5;exitY=0;exitDx=0;exitDy=0;entryX=1;entryY=1;entryDx=0;entryDy=0;" edge="1" parent="1" source="MJ9FmiJIb03FYbhCcJB9-18" target="-ye_jGZV8SDwIf8IDLf7-43">
          <mxGeometry width="50" height="50" relative="1" as="geometry">
            <mxPoint x="920" y="590" as="sourcePoint" />
            <mxPoint x="970" y="540" as="targetPoint" />
          </mxGeometry>
        </mxCell>
        <mxCell id="-ye_jGZV8SDwIf8IDLf7-77" value="" style="endArrow=classic;html=1;rounded=0;sketch=1;hachureGap=4;jiggle=2;curveFitting=1;exitX=0.5;exitY=0;exitDx=0;exitDy=0;entryX=0.75;entryY=1;entryDx=0;entryDy=0;" edge="1" parent="1" source="MJ9FmiJIb03FYbhCcJB9-23" target="-ye_jGZV8SDwIf8IDLf7-58">
          <mxGeometry width="50" height="50" relative="1" as="geometry">
            <mxPoint x="1430" y="490" as="sourcePoint" />
            <mxPoint x="1480" y="440" as="targetPoint" />
          </mxGeometry>
        </mxCell>
        <mxCell id="-ye_jGZV8SDwIf8IDLf7-78" value="" style="endArrow=classic;html=1;rounded=0;sketch=1;hachureGap=4;jiggle=2;curveFitting=1;exitX=1;exitY=0.5;exitDx=0;exitDy=0;entryX=0;entryY=0.75;entryDx=0;entryDy=0;" edge="1" parent="1" source="-ye_jGZV8SDwIf8IDLf7-57" target="-ye_jGZV8SDwIf8IDLf7-58">
          <mxGeometry width="50" height="50" relative="1" as="geometry">
            <mxPoint x="950" y="400" as="sourcePoint" />
            <mxPoint x="1000" y="350" as="targetPoint" />
          </mxGeometry>
        </mxCell>
        <mxCell id="-ye_jGZV8SDwIf8IDLf7-79" value="" style="rounded=0;whiteSpace=wrap;html=1;sketch=1;hachureGap=4;jiggle=2;curveFitting=1;" vertex="1" parent="1">
          <mxGeometry x="1800" y="160" width="580" height="350" as="geometry" />
        </mxCell>
        <mxCell id="-ye_jGZV8SDwIf8IDLf7-80" value="" style="rounded=0;whiteSpace=wrap;html=1;sketch=1;hachureGap=4;jiggle=2;curveFitting=1;" vertex="1" parent="1">
          <mxGeometry x="1800" y="160" width="580" height="60" as="geometry" />
        </mxCell>
        <mxCell id="-ye_jGZV8SDwIf8IDLf7-81" value="Logo" style="ellipse;whiteSpace=wrap;html=1;align=center;sketch=1;hachureGap=4;jiggle=2;curveFitting=1;" vertex="1" parent="1">
          <mxGeometry x="1820" y="170" width="40" height="40" as="geometry" />
        </mxCell>
        <mxCell id="-ye_jGZV8SDwIf8IDLf7-82" value="&lt;font style=&quot;font-size: 17px;&quot;&gt;&lt;b&gt;Home page(for admin)&lt;/b&gt;&lt;/font&gt;" style="text;html=1;align=center;verticalAlign=middle;whiteSpace=wrap;rounded=0;" vertex="1" parent="1">
          <mxGeometry x="1990" y="175" width="200" height="30" as="geometry" />
        </mxCell>
        <mxCell id="-ye_jGZV8SDwIf8IDLf7-83" value="About Us" style="text;html=1;align=center;verticalAlign=middle;whiteSpace=wrap;rounded=0;" vertex="1" parent="1">
          <mxGeometry x="2190" y="175" width="60" height="30" as="geometry" />
        </mxCell>
        <mxCell id="-ye_jGZV8SDwIf8IDLf7-84" value="Change Detail" style="text;html=1;align=center;verticalAlign=middle;whiteSpace=wrap;rounded=0;" vertex="1" parent="1">
          <mxGeometry x="2260" y="175" width="60" height="30" as="geometry" />
        </mxCell>
        <mxCell id="-ye_jGZV8SDwIf8IDLf7-85" value="Log out" style="ellipse;whiteSpace=wrap;html=1;align=center;sketch=1;hachureGap=4;jiggle=2;curveFitting=1;" vertex="1" parent="1">
          <mxGeometry x="2330" y="170" width="40" height="40" as="geometry" />
        </mxCell>
        <mxCell id="-ye_jGZV8SDwIf8IDLf7-86" value="" style="shape=internalStorage;whiteSpace=wrap;html=1;dx=15;dy=15;rounded=1;arcSize=8;strokeWidth=2;sketch=1;hachureGap=4;jiggle=2;curveFitting=1;" vertex="1" parent="1">
          <mxGeometry x="1820" y="240" width="210" height="240" as="geometry" />
        </mxCell>
        <mxCell id="-ye_jGZV8SDwIf8IDLf7-87" value="" style="shape=internalStorage;whiteSpace=wrap;html=1;dx=15;dy=15;rounded=1;arcSize=8;strokeWidth=2;sketch=1;hachureGap=4;jiggle=2;curveFitting=1;" vertex="1" parent="1">
          <mxGeometry x="2150" y="240" width="210" height="240" as="geometry" />
        </mxCell>
        <mxCell id="-ye_jGZV8SDwIf8IDLf7-88" value="&lt;h1&gt;Events&lt;/h1&gt;&lt;p&gt;Lorem ipsum dolor sit amet, consectetur adipisicing elit, sed do eiusmod tempor incididunt ut labore et dolore magna aliqua.&lt;/p&gt;" style="text;html=1;spacing=5;spacingTop=-20;whiteSpace=wrap;overflow=hidden;rounded=0;" vertex="1" parent="1">
          <mxGeometry x="1840" y="290" width="190" height="120" as="geometry" />
        </mxCell>
        <mxCell id="-ye_jGZV8SDwIf8IDLf7-89" value="&lt;font style=&quot;font-size: 16px;&quot;&gt;&lt;b&gt;Crytoshow devices&lt;/b&gt;&lt;/font&gt;" style="text;html=1;align=center;verticalAlign=middle;whiteSpace=wrap;rounded=0;" vertex="1" parent="1">
          <mxGeometry x="2170" y="270" width="155" height="30" as="geometry" />
        </mxCell>
        <mxCell id="-ye_jGZV8SDwIf8IDLf7-92" value="&lt;font style=&quot;font-size: 15px;&quot;&gt;&lt;b&gt;Member list&lt;/b&gt;&lt;/font&gt;" style="rounded=1;arcSize=10;whiteSpace=wrap;html=1;align=center;sketch=1;hachureGap=4;jiggle=2;curveFitting=1;direction=south;" vertex="1" parent="1">
          <mxGeometry x="2060" y="361.25" width="60" height="100" as="geometry" />
        </mxCell>
        <mxCell id="-ye_jGZV8SDwIf8IDLf7-93" value="&lt;font style=&quot;font-size: 15px;&quot;&gt;&lt;b&gt;List view&lt;/b&gt;&lt;/font&gt;" style="rounded=1;arcSize=10;whiteSpace=wrap;html=1;align=center;sketch=1;hachureGap=4;jiggle=2;curveFitting=1;direction=south;" vertex="1" parent="1">
          <mxGeometry x="2060" y="245" width="60" height="100" as="geometry" />
        </mxCell>
        <mxCell id="-ye_jGZV8SDwIf8IDLf7-94" value="" style="rounded=0;whiteSpace=wrap;html=1;sketch=1;hachureGap=4;jiggle=2;curveFitting=1;" vertex="1" parent="1">
          <mxGeometry x="2470" y="345" width="580" height="350" as="geometry" />
        </mxCell>
        <mxCell id="-ye_jGZV8SDwIf8IDLf7-95" value="" style="rounded=0;whiteSpace=wrap;html=1;sketch=1;hachureGap=4;jiggle=2;curveFitting=1;" vertex="1" parent="1">
          <mxGeometry x="2470" y="345" width="580" height="60" as="geometry" />
        </mxCell>
        <mxCell id="-ye_jGZV8SDwIf8IDLf7-96" value="&lt;font style=&quot;font-size: 17px;&quot;&gt;&lt;b&gt;Member list&lt;/b&gt;&lt;/font&gt;" style="text;html=1;align=center;verticalAlign=middle;whiteSpace=wrap;rounded=0;" vertex="1" parent="1">
          <mxGeometry x="2660" y="360" width="200" height="30" as="geometry" />
        </mxCell>
        <mxCell id="-ye_jGZV8SDwIf8IDLf7-97" value="Logo" style="ellipse;whiteSpace=wrap;html=1;align=center;sketch=1;hachureGap=4;jiggle=2;curveFitting=1;" vertex="1" parent="1">
          <mxGeometry x="2490" y="355" width="40" height="40" as="geometry" />
        </mxCell>
        <mxCell id="-ye_jGZV8SDwIf8IDLf7-98" value="Log out" style="ellipse;whiteSpace=wrap;html=1;align=center;sketch=1;hachureGap=4;jiggle=2;curveFitting=1;" vertex="1" parent="1">
          <mxGeometry x="2995" y="355" width="40" height="40" as="geometry" />
        </mxCell>
        <mxCell id="-ye_jGZV8SDwIf8IDLf7-100" value="Change Detail" style="text;html=1;align=center;verticalAlign=middle;whiteSpace=wrap;rounded=0;" vertex="1" parent="1">
          <mxGeometry x="2930" y="360" width="60" height="30" as="geometry" />
        </mxCell>
        <mxCell id="-ye_jGZV8SDwIf8IDLf7-101" value="About Us" style="text;html=1;align=center;verticalAlign=middle;whiteSpace=wrap;rounded=0;" vertex="1" parent="1">
          <mxGeometry x="2870" y="360" width="60" height="30" as="geometry" />
        </mxCell>
        <mxCell id="-ye_jGZV8SDwIf8IDLf7-102" value="Member" style="swimlane;fontStyle=0;childLayout=stackLayout;horizontal=1;startSize=40;horizontalStack=0;resizeParent=1;resizeParentMax=0;resizeLast=0;collapsible=1;marginBottom=0;align=center;fontSize=18;sketch=1;hachureGap=4;jiggle=2;curveFitting=1;" vertex="1" parent="1">
          <mxGeometry x="2510" y="430" width="490" height="130" as="geometry" />
        </mxCell>
        <mxCell id="-ye_jGZV8SDwIf8IDLf7-103" value="member 1" style="text;strokeColor=none;fillColor=none;spacingLeft=4;spacingRight=4;overflow=hidden;rotatable=0;points=[[0,0.5],[1,0.5]];portConstraint=eastwest;fontSize=12;whiteSpace=wrap;html=1;" vertex="1" parent="-ye_jGZV8SDwIf8IDLf7-102">
          <mxGeometry y="40" width="490" height="30" as="geometry" />
        </mxCell>
        <mxCell id="-ye_jGZV8SDwIf8IDLf7-104" value="Member 2" style="text;strokeColor=none;fillColor=none;spacingLeft=4;spacingRight=4;overflow=hidden;rotatable=0;points=[[0,0.5],[1,0.5]];portConstraint=eastwest;fontSize=12;whiteSpace=wrap;html=1;" vertex="1" parent="-ye_jGZV8SDwIf8IDLf7-102">
          <mxGeometry y="70" width="490" height="30" as="geometry" />
        </mxCell>
        <mxCell id="-ye_jGZV8SDwIf8IDLf7-105" value="member 3" style="text;strokeColor=none;fillColor=none;spacingLeft=4;spacingRight=4;overflow=hidden;rotatable=0;points=[[0,0.5],[1,0.5]];portConstraint=eastwest;fontSize=12;whiteSpace=wrap;html=1;" vertex="1" parent="-ye_jGZV8SDwIf8IDLf7-102">
          <mxGeometry y="100" width="490" height="30" as="geometry" />
        </mxCell>
        <mxCell id="-ye_jGZV8SDwIf8IDLf7-106" value="" style="rounded=0;whiteSpace=wrap;html=1;sketch=1;hachureGap=4;jiggle=2;curveFitting=1;" vertex="1" parent="1">
          <mxGeometry x="2020" y="840" width="120" height="60" as="geometry" />
        </mxCell>
        <mxCell id="-ye_jGZV8SDwIf8IDLf7-107" value="" style="rounded=0;whiteSpace=wrap;html=1;sketch=1;hachureGap=4;jiggle=2;curveFitting=1;" vertex="1" parent="1">
          <mxGeometry x="1790" y="570" width="580" height="350" as="geometry" />
        </mxCell>
        <mxCell id="-ye_jGZV8SDwIf8IDLf7-108" value="" style="rounded=0;whiteSpace=wrap;html=1;sketch=1;hachureGap=4;jiggle=2;curveFitting=1;" vertex="1" parent="1">
          <mxGeometry x="1790" y="570" width="580" height="60" as="geometry" />
        </mxCell>
        <mxCell id="-ye_jGZV8SDwIf8IDLf7-109" value="&lt;font style=&quot;font-size: 17px;&quot;&gt;&lt;b&gt;Event detail&lt;br&gt;&lt;/b&gt;&lt;/font&gt;" style="text;html=1;align=center;verticalAlign=middle;whiteSpace=wrap;rounded=0;" vertex="1" parent="1">
          <mxGeometry x="2025" y="580" width="110" height="30" as="geometry" />
        </mxCell>
        <mxCell id="-ye_jGZV8SDwIf8IDLf7-110" value="" style="whiteSpace=wrap;html=1;aspect=fixed;sketch=1;hachureGap=4;jiggle=2;curveFitting=1;" vertex="1" parent="1">
          <mxGeometry x="1820" y="650" width="80" height="80" as="geometry" />
        </mxCell>
        <mxCell id="-ye_jGZV8SDwIf8IDLf7-111" value="" style="whiteSpace=wrap;html=1;aspect=fixed;sketch=1;hachureGap=4;jiggle=2;curveFitting=1;" vertex="1" parent="1">
          <mxGeometry x="1820" y="780" width="80" height="80" as="geometry" />
        </mxCell>
        <mxCell id="-ye_jGZV8SDwIf8IDLf7-112" value="&lt;h1&gt;Event 1&lt;/h1&gt;&lt;p&gt;Lorem ipsum dolor sit amet, consectetur adipisicing elit, sed do eiusmod tempor incididunt ut labore et dolore magna aliqua.&lt;/p&gt;" style="text;html=1;spacing=5;spacingTop=-20;whiteSpace=wrap;overflow=hidden;rounded=0;" vertex="1" parent="1">
          <mxGeometry x="1940" y="640" width="380" height="100" as="geometry" />
        </mxCell>
        <mxCell id="-ye_jGZV8SDwIf8IDLf7-113" value="&lt;h1&gt;Event 2&lt;/h1&gt;&lt;p&gt;Lorem ipsum dolor sit amet, consectetur adipisicing elit, sed do eiusmod tempor incididunt ut labore et dolore magna aliqua.&lt;/p&gt;" style="text;html=1;spacing=5;spacingTop=-20;whiteSpace=wrap;overflow=hidden;rounded=0;" vertex="1" parent="1">
          <mxGeometry x="1940" y="770" width="380" height="100" as="geometry" />
        </mxCell>
        <mxCell id="-ye_jGZV8SDwIf8IDLf7-114" value="Dowload" style="rounded=1;arcSize=10;whiteSpace=wrap;html=1;align=center;sketch=1;hachureGap=4;jiggle=2;curveFitting=1;" vertex="1" parent="1">
          <mxGeometry x="2150" y="730" width="60" height="22.5" as="geometry" />
        </mxCell>
        <mxCell id="-ye_jGZV8SDwIf8IDLf7-115" value="Share" style="rounded=1;arcSize=10;whiteSpace=wrap;html=1;align=center;sketch=1;hachureGap=4;jiggle=2;curveFitting=1;" vertex="1" parent="1">
          <mxGeometry x="2220" y="731.25" width="60" height="20" as="geometry" />
        </mxCell>
        <mxCell id="-ye_jGZV8SDwIf8IDLf7-116" value="Dowload" style="rounded=1;arcSize=10;whiteSpace=wrap;html=1;align=center;sketch=1;hachureGap=4;jiggle=2;curveFitting=1;" vertex="1" parent="1">
          <mxGeometry x="2150" y="861.25" width="55" height="21.25" as="geometry" />
        </mxCell>
        <mxCell id="-ye_jGZV8SDwIf8IDLf7-117" value="Share" style="rounded=1;arcSize=10;whiteSpace=wrap;html=1;align=center;sketch=1;hachureGap=4;jiggle=2;curveFitting=1;" vertex="1" parent="1">
          <mxGeometry x="2220" y="862.5" width="60" height="20" as="geometry" />
        </mxCell>
        <mxCell id="-ye_jGZV8SDwIf8IDLf7-118" value="" style="endArrow=none;html=1;rounded=0;sketch=1;hachureGap=4;jiggle=2;curveFitting=1;entryX=1;entryY=0;entryDx=0;entryDy=0;exitX=0;exitY=1;exitDx=0;exitDy=0;" edge="1" parent="1" source="-ye_jGZV8SDwIf8IDLf7-110" target="-ye_jGZV8SDwIf8IDLf7-110">
          <mxGeometry width="50" height="50" relative="1" as="geometry">
            <mxPoint x="1835" y="715" as="sourcePoint" />
            <mxPoint x="1885" y="665" as="targetPoint" />
          </mxGeometry>
        </mxCell>
        <mxCell id="-ye_jGZV8SDwIf8IDLf7-119" value="" style="endArrow=none;html=1;rounded=0;sketch=1;hachureGap=4;jiggle=2;curveFitting=1;entryX=0;entryY=0;entryDx=0;entryDy=0;exitX=1;exitY=1;exitDx=0;exitDy=0;" edge="1" parent="1" source="-ye_jGZV8SDwIf8IDLf7-110" target="-ye_jGZV8SDwIf8IDLf7-110">
          <mxGeometry width="50" height="50" relative="1" as="geometry">
            <mxPoint x="2050" y="810" as="sourcePoint" />
            <mxPoint x="2100" y="760" as="targetPoint" />
          </mxGeometry>
        </mxCell>
        <mxCell id="-ye_jGZV8SDwIf8IDLf7-120" value="" style="endArrow=none;html=1;rounded=0;sketch=1;hachureGap=4;jiggle=2;curveFitting=1;entryX=0;entryY=0;entryDx=0;entryDy=0;exitX=1;exitY=1;exitDx=0;exitDy=0;" edge="1" parent="1" source="-ye_jGZV8SDwIf8IDLf7-111" target="-ye_jGZV8SDwIf8IDLf7-111">
          <mxGeometry width="50" height="50" relative="1" as="geometry">
            <mxPoint x="2050" y="810" as="sourcePoint" />
            <mxPoint x="2100" y="760" as="targetPoint" />
          </mxGeometry>
        </mxCell>
        <mxCell id="-ye_jGZV8SDwIf8IDLf7-121" value="" style="endArrow=none;html=1;rounded=0;sketch=1;hachureGap=4;jiggle=2;curveFitting=1;entryX=1;entryY=0;entryDx=0;entryDy=0;exitX=0;exitY=1;exitDx=0;exitDy=0;" edge="1" parent="1" source="-ye_jGZV8SDwIf8IDLf7-111" target="-ye_jGZV8SDwIf8IDLf7-111">
          <mxGeometry width="50" height="50" relative="1" as="geometry">
            <mxPoint x="2050" y="810" as="sourcePoint" />
            <mxPoint x="2100" y="760" as="targetPoint" />
          </mxGeometry>
        </mxCell>
        <mxCell id="-ye_jGZV8SDwIf8IDLf7-122" value="Log out" style="ellipse;whiteSpace=wrap;html=1;align=center;sketch=1;hachureGap=4;jiggle=2;curveFitting=1;" vertex="1" parent="1">
          <mxGeometry x="2310" y="580" width="40" height="40" as="geometry" />
        </mxCell>
        <mxCell id="-ye_jGZV8SDwIf8IDLf7-123" value="Home" style="ellipse;whiteSpace=wrap;html=1;align=center;sketch=1;hachureGap=4;jiggle=2;curveFitting=1;" vertex="1" parent="1">
          <mxGeometry x="2260" y="580" width="40" height="40" as="geometry" />
        </mxCell>
        <mxCell id="-ye_jGZV8SDwIf8IDLf7-125" value="manage" style="rounded=1;arcSize=10;whiteSpace=wrap;html=1;align=center;sketch=1;hachureGap=4;jiggle=2;curveFitting=1;" vertex="1" parent="1">
          <mxGeometry x="2290" y="728.75" width="60" height="22.5" as="geometry" />
        </mxCell>
        <mxCell id="-ye_jGZV8SDwIf8IDLf7-126" value="manage" style="rounded=1;arcSize=10;whiteSpace=wrap;html=1;align=center;sketch=1;hachureGap=4;jiggle=2;curveFitting=1;" vertex="1" parent="1">
          <mxGeometry x="2290" y="860.63" width="60" height="22.5" as="geometry" />
        </mxCell>
        <mxCell id="-ye_jGZV8SDwIf8IDLf7-127" value="" style="endArrow=classic;html=1;rounded=0;sketch=1;hachureGap=4;jiggle=2;curveFitting=1;exitX=0.25;exitY=1;exitDx=0;exitDy=0;entryX=0.25;entryY=0;entryDx=0;entryDy=0;" edge="1" parent="1" source="-ye_jGZV8SDwIf8IDLf7-86" target="-ye_jGZV8SDwIf8IDLf7-108">
          <mxGeometry width="50" height="50" relative="1" as="geometry">
            <mxPoint x="2030" y="580" as="sourcePoint" />
            <mxPoint x="2080" y="530" as="targetPoint" />
          </mxGeometry>
        </mxCell>
        <mxCell id="-ye_jGZV8SDwIf8IDLf7-128" value="" style="endArrow=classic;html=1;rounded=0;sketch=1;hachureGap=4;jiggle=2;curveFitting=1;exitX=1;exitY=0.5;exitDx=0;exitDy=0;entryX=0;entryY=0.5;entryDx=0;entryDy=0;" edge="1" parent="1" source="-ye_jGZV8SDwIf8IDLf7-92" target="-ye_jGZV8SDwIf8IDLf7-94">
          <mxGeometry width="50" height="50" relative="1" as="geometry">
            <mxPoint x="2200" y="600" as="sourcePoint" />
            <mxPoint x="2250" y="550" as="targetPoint" />
            <Array as="points">
              <mxPoint x="2170" y="540" />
            </Array>
          </mxGeometry>
        </mxCell>
      </root>
    </mxGraphModel>
  </diagram>
</mxfile>
